<svg width="585" height="199" viewBox="0 0 585 199" fill="none" xmlns="http://www.w3.org/2000/svg">
<path d="M451.168 192.842L451.101 192.79C448.728 190.965 447.023 188.72 446.072 186.058L446.065 186.038L446.058 186.018L410.169 78.3505L410.148 78.2848L410.13 78.2178C408.784 73.0025 408.689 68.4612 410.224 64.8173L410.233 64.7948L410.243 64.7727C412.129 60.5808 416.11 58.7435 421.282 58.7435C424.733 58.7435 427.727 59.7464 430.087 61.8789C432.616 63.8571 434.459 67.1103 435.796 71.2878C435.796 71.2881 435.796 71.2884 435.796 71.2887L460.004 146.825L482.896 69.3939L451.168 192.842ZM451.168 192.842L451.239 192.887C453.811 194.541 456.609 195.388 459.596 195.388C462.718 195.388 465.547 194.554 468.009 192.849L468.021 192.841L468.033 192.833C470.595 191.003 472.366 188.709 473.158 185.935L473.159 185.931L496.164 104.856M451.168 192.842L496.164 104.856M496.164 104.856L518.046 185.907L518.049 185.921L518.053 185.935C518.846 188.709 520.617 191.003 523.179 192.833L523.219 192.861L523.26 192.887C525.832 194.541 528.63 195.388 531.616 195.388C534.739 195.388 537.568 194.554 540.029 192.849L540.071 192.821L540.11 192.79C542.494 190.957 544.14 188.685 544.924 185.978L580.787 78.3869C580.789 78.3808 580.792 78.3746 580.794 78.3685C582.651 73.1251 582.9 68.4506 580.925 64.6815C578.876 60.6001 574.979 58.7435 569.93 58.7435C566.42 58.7435 563.348 59.82 560.845 62.0342C558.383 64.2126 556.611 67.3669 555.412 71.3015C555.41 71.3063 555.409 71.3111 555.407 71.3159L530.86 148.08L510.769 69.5002C510.767 69.4935 510.765 69.4869 510.764 69.4802C510.024 66.3527 508.434 63.7851 505.986 61.878C503.606 59.7292 500.521 58.7435 496.94 58.7435C493.212 58.7435 490.023 59.7214 487.621 61.9043C485.357 63.8038 483.797 66.3329 482.897 69.3912L496.164 104.856ZM36.1524 187.345L36.1627 187.351L36.173 187.357C46.5277 193.37 58.196 196.357 71.1264 196.357C84.2136 196.357 95.9638 193.372 106.322 187.357L106.333 187.351L106.343 187.345C116.66 181.188 124.824 172.858 130.813 162.381C136.985 151.867 140.055 140.038 140.055 126.944C140.055 113.884 137.243 102.155 131.573 91.8078C126.082 81.3321 118.491 73.0655 108.808 67.053C99.093 60.8582 88.13 57.7735 75.9763 57.7735C66.1482 57.7735 57.0315 59.8577 48.6573 64.0434C42.0742 67.2688 36.2443 71.4716 31.175 76.6455V16.3672C31.175 12.2112 29.8935 8.67988 27.1943 5.9807C24.4951 3.28152 20.9638 2 16.8078 2C12.7847 2 9.29451 3.29748 6.47095 5.9328L6.44575 5.95632L6.42137 5.9807C3.72219 8.67988 2.44067 12.2112 2.44067 16.3672V126.944V126.957L2.44083 126.97C2.6064 140.049 5.67346 151.865 11.6765 162.371C17.6662 172.853 25.8321 181.186 36.1524 187.345ZM106.724 149.249L106.715 149.265L106.707 149.28C103.15 155.929 98.3012 161.159 92.1483 165.008C86.0251 168.678 79.0367 170.533 71.1264 170.533C63.3894 170.533 56.3938 168.683 50.095 165.002C43.9466 161.153 39.1005 155.926 35.546 149.28C31.9962 142.644 30.2051 135.213 30.2051 126.944C30.2051 118.507 31.9993 111.085 35.5366 104.626C39.0891 98.1384 43.9347 93.0675 50.0885 89.3753L50.0946 89.3716L50.1007 89.3679C56.402 85.5257 63.3948 83.598 71.1264 83.598C79.028 83.598 86.0105 85.5295 92.1333 89.3563L92.1488 89.3659L92.1644 89.3753C98.3181 93.0675 103.164 98.1384 106.716 104.626L106.725 104.641L106.734 104.657C110.422 111.111 112.29 118.521 112.29 126.944C112.29 135.198 110.425 142.618 106.724 149.249ZM216.068 62.3177L216.06 62.3213L216.052 62.325C210.447 64.9321 205.489 68.3068 201.19 72.4473C201.121 68.2841 200.023 64.8066 197.576 62.3605C195.048 59.8323 191.419 58.7435 187.069 58.7435C182.719 58.7435 179.089 59.8323 176.561 62.3605C174.033 64.8886 172.944 68.5183 172.944 72.8682V181.263C172.944 185.613 174.033 189.242 176.561 191.771C179.089 194.299 182.719 195.388 187.069 195.388C191.419 195.388 195.048 194.299 197.576 191.771C200.105 189.242 201.193 185.613 201.193 181.263V110.455C201.193 103.485 203.37 97.8628 207.652 93.4275C212.172 88.9125 218.341 85.7524 226.289 84.038C234.205 82.3306 243.215 82.4679 253.356 84.5279L253.362 84.5291C256.876 85.2319 260.115 85.0875 262.984 83.9399L263.037 83.9191L263.087 83.8953C266.22 82.4334 268.128 79.5597 269.033 75.7758C269.703 73.1751 269.497 70.6601 268.335 68.3364C267.197 66.0601 265.221 64.1246 262.617 62.4698C257.434 58.9103 249.762 57.2885 239.932 57.2885C231.418 57.2885 223.455 58.9598 216.068 62.3177ZM308.618 187.613L308.634 187.622L308.65 187.631C319.484 193.465 331.78 196.357 345.487 196.357C353.171 196.357 361.147 194.938 369.406 192.13C377.812 189.328 384.895 185.676 390.608 181.143C393.76 178.727 395.461 175.633 395.255 171.937C395.057 168.363 393.257 165.229 390.217 162.546L390.201 162.532L390.185 162.519C387.683 160.401 384.685 159.446 381.32 159.621C378.127 159.633 375.152 160.682 372.434 162.675L372.425 162.682L372.416 162.688C369.393 164.956 365.308 167.054 360.098 168.95C355.12 170.659 350.253 171.503 345.487 171.503C333.612 171.503 323.649 168.156 315.481 161.536C308.047 155.239 303.335 147.31 301.328 137.674H391.076C394.741 137.674 397.915 136.56 400.435 134.234L400.464 134.207L400.492 134.178C402.983 131.688 404.231 128.587 404.231 125.004C404.231 111.985 401.759 100.44 396.754 90.4217C391.906 80.2315 384.779 72.2597 375.392 66.5577C365.97 60.6721 354.76 57.7735 341.85 57.7735C328.767 57.7735 317.096 60.757 306.894 66.7749C296.714 72.6186 288.701 80.8055 282.873 91.2964L282.868 91.306C277.185 101.668 274.376 113.648 274.376 127.187C274.376 140.588 277.358 152.577 283.37 163.098L283.379 163.115L283.389 163.131C289.552 173.459 297.973 181.626 308.618 187.613ZM366.591 92.192L366.599 92.2008L366.607 92.2094C372.266 98.0089 375.937 105.335 377.573 114.275H301.628C303.719 105.241 307.964 97.8582 314.34 92.0486C321.171 85.825 330.272 82.628 341.85 82.628C352.398 82.628 360.567 85.8672 366.591 92.192Z" stroke="white" stroke-width="4"/>
</svg>
